<svg width="14" height="8" fill="none" xmlns="http://www.w3.org/2000/svg"><path d="M.5.75h1.28936c.83228 0 1.39441.037472 1.6864.112415.29471.074943.51847.198065.67128.369365s.24832.36267.28652.57412c.03821.20877.05731.62096.05731 1.23656v2.27641c0 .58349-.02865.97426-.08596 1.17233-.05457.19539-.15145.34929-.29062.4617-.13916.10974-.31108.18736-.51574.23286-.20466.04283-.51301.06424-.92506.06424H.5V.75Zm1.72324 1.11211v4.27578c.24832 0 .40113-.04817.45844-.14453.0573-.09903.08595-.36535.08595-.79895V2.66909c0-.29442-.00955-.48312-.02865-.56609-.0191-.08298-.06276-.1432-.13098-.18067-.06822-.04015-.19648-.06022-.38476-.06022ZM5.52645.75h2.87342v1.3008H7.24969v1.23255H8.3262v1.23657H7.24969V5.9492h1.26479V7.25H5.52645V.75ZM13.5.75l-.8759 6.5h-2.6156L9.01385.75h1.81735c.2102 1.79061.3602 3.3042.4503 4.54077.09-1.24995.1842-2.36072.2824-3.33231L11.6826.75H13.5Z" fill="#14C57C"/></svg>